0
SECTION
2
HEADER
9
$INSUNITS
70
4
9
$ACADVER
1
AC1014
9
$HANDSEED
5
FFFF
0
ENDSEC
0
SECTION
2
TABLES
0
TABLE
2
VPORT
5
8
100
AcDbSymbolTable
0
ENDTAB
0
TABLE
2
LTYPE
5
5
100
AcDbSymbolTable
0
LTYPE
5
14
100
AcDbSymbolTableRecord
100
AcDbLinetypeTableRecord
2
BYBLOCK
70
0
0
LTYPE
5
15
100
AcDbSymbolTableRecord
100
AcDbLinetypeTableRecord
2
BYLAYER
70
0
0
ENDTAB
0
TABLE
2
LAYER
5
2
100
AcDbSymbolTable
70
2
0
LAYER
5
50
100
AcDbSymbolTableRecord
100
AcDbLayerTableRecord
2
0
70
0
6
CONTINUOUS
0
ENDTAB
0
TABLE
2
STYLE
5
3
100
AcDbSymbolTable
70
1
0
STYLE
5
11
100
AcDbSymbolTableRecord
100
AcDbTextStyleTableRecord
2
STANDARD
70
0
0
ENDTAB
0
TABLE
2
VIEW
5
6
100
AcDbSymbolTable
70
0
0
ENDTAB
0
TABLE
2
UCS
5
7
100
AcDbSymbolTable
70
0
0
ENDTAB
0
TABLE
2
APPID
5
9
100
AcDbSymbolTable
70
2
0
APPID
5
12
100
AcDbSymbolTableRecord
100
AcDbRegAppTableRecord
2
ACAD
70
0
0
ENDTAB
0
TABLE
2
DIMSTYLE
5
A
100
AcDbSymbolTable
70
1
0
ENDTAB
0
TABLE
2
BLOCK_RECORD
5
1
100
AcDbSymbolTable
70
1
0
BLOCK_RECORD
5
1F
100
AcDbSymbolTableRecord
100
AcDbBlockTableRecord
2
*MODEL_SPACE
0
BLOCK_RECORD
5
1B
100
AcDbSymbolTableRecord
100
AcDbBlockTableRecord
2
*PAPER_SPACE
0
ENDTAB
0
ENDSEC
0
SECTION
2
BLOCKS
0
BLOCK
5
20
100
AcDbEntity
100
AcDbBlockBegin
2
*MODEL_SPACE
0
ENDBLK
5
21
100
AcDbEntity
100
AcDbBlockEnd
0
BLOCK
5
1C
100
AcDbEntity
100
AcDbBlockBegin
2
*PAPER_SPACE
0
ENDBLK
5
1D
100
AcDbEntity
100
AcDbBlockEnd
0
ENDSEC
0
SECTION
2
ENTITIES
0
LWPOLYLINE
5
100
100
AcDbEntity
8
0
100
AcDbPolyline
90
5
70
1
43
0.0
10
31.788962207051998
20
-26.674106463445995
42
-0.021820077622151671
10
29.343194047552416
20
-29.343194047552515
42
-0.021820077622152004
10
26.674106463445909
20
-31.78896220705208
10
25.71150438746157
20
-30.64177772475912
42
0.043660942908518366
10
30.641777724759109
20
-25.711504387461581
0
LWPOLYLINE
5
101
100
AcDbEntity
8
0
100
AcDbPolyline
90
5
70
1
43
0.0
10
30.64177772475912
20
25.71150438746157
10
31.788962207052084
20
26.674106463445895
42
0.021820077622148798
10
29.343194047552416
20
29.343194047552423
42
0.021820077622148479
10
26.674106463445895
20
31.788962207052084
10
25.711504387460941
20
30.641777724758331
42
-0.043660942908512232
0
LWPOLYLINE
5
102
100
AcDbEntity
8
0
100
AcDbPolyline
90
5
70
1
43
0.0
10
-26.67410646344625
20
-31.788962207052439
42
-0.021820077622149114
10
-29.34319404755275
20
-29.343194047552835
42
-0.021820077622149447
10
-31.78896220705208
20
-26.674106463445909
10
-30.641777724759116
20
-25.711504387461574
42
0.043660942908511635
10
-25.711504387461584
20
-30.641777724759113
0
CIRCLE
5
103
100
AcDbEntity
8
0
100
AcDbCircle
10
-19.999999999999996
20
-10
30
0
40
2.75
210
0
220
0
230
1
0
LWPOLYLINE
5
104
100
AcDbEntity
8
0
100
AcDbPolyline
90
8
70
1
43
0.0
10
59.924999999999997
20
-2.9990623534698377
42
-0.97530483039669857
10
59.925000000000004
20
2.9990623534698226
42
0.38521546232717374
10
2.9990623534698457
20
59.924999999999997
42
-0.97530483039669758
10
-2.9990623534698186
20
59.924999999999997
42
0.38521546232713472
10
-59.924999999999997
20
2.9990623534698302
42
-0.97530483039669857
10
-59.924999999999997
20
-2.9990623534698306
42
0.38521546232716963
10
-2.9990623534698457
20
-59.924999999999997
42
-0.97530483039669758
10
2.9990623534698191
20
-59.925000000000011
42
0.38521546232720899
0
LWPOLYLINE
5
105
100
AcDbEntity
8
0
100
AcDbPolyline
90
5
70
1
43
0.0
10
-25.71150438746157
20
30.64177772475912
10
-26.674106463445892
20
31.788962207052091
42
0.021820077622146571
10
-29.343194047552423
20
29.343194047552423
42
0.021820077622145932
10
-31.78896220705208
20
26.674106463445902
10
-30.641777724759063
20
25.711504387461556
42
-0.043660942908505557
0
CIRCLE
5
106
100
AcDbEntity
8
0
100
AcDbCircle
10
-19.999999999999996
20
10
30
0
40
2.7499999999999991
210
0
220
0
230
1
0
CIRCLE
5
107
100
AcDbEntity
8
0
100
AcDbCircle
10
19.999999999999996
20
10
30
0
40
2.7499999999999991
210
0
220
0
230
1
0
CIRCLE
5
108
100
AcDbEntity
8
0
100
AcDbCircle
10
19.999999999999996
20
-10
30
0
40
2.7499999999999991
210
0
220
0
230
1
0
ENDSEC
0
SECTION
2
OBJECTS
0
DICTIONARY
5
C
100
AcDbDictionary
3
ACAD_GROUP
350
D
3
ACAD_MLINESTYLE
350
17
0
DICTIONARY
5
D
100
AcDbDictionary
0
DICTIONARY
5
1A
330
C
100
AcDbDictionary
0
DICTIONARY
5
17
100
AcDbDictionary
0
ENDSEC
0
EOF
